HIERARCHY
ROOT hip
{
  OFFSET 0 0 0
  CHANNELS 6 Xposition Yposition Zposition Zrotation Yrotation Xrotation
  JOINT abdomen
  {
    OFFSET 0 20.6881 -0.73152
    CHANNELS 3 Zrotation Xrotation Yrotation
    JOINT chest
    {
      OFFSET 0 11.7043 -0.48768
      CHANNELS 3 Zrotation Xrotation Yrotation
      JOINT neck
      {
        OFFSET 0 22.1894 -2.19456
        CHANNELS 3 Zrotation Xrotation Yrotation
        JOINT head
        {
          OFFSET -0.24384 7.07133 1.2192
          CHANNELS 3 Zrotation Xrotation Yrotation
          JOINT leftEye
          {
            OFFSET 4.14528 8.04674 8.04672
            CHANNELS 3 Zrotation Xrotation Yrotation
            End Site
            {
              OFFSET 1 0 0
            }
          }
          JOINT rightEye
          {
            OFFSET -3.6576 8.04674 8.04672
            CHANNELS 3 Zrotation Xrotation Yrotation
            End Site
            {
              OFFSET 1 0 0
            }
          }
        }
      }
      JOINT rCollar
      {
        OFFSET -2.68224 19.2634 -4.8768
        CHANNELS 3 Zrotation Xrotation Yrotation
        JOINT rShldr
        {
          OFFSET -8.77824 -1.95073 1.46304
          CHANNELS 3 Zrotation Xrotation Yrotation
          JOINT rForeArm
          {
            OFFSET -28.1742 -1.7115 0.48768
            CHANNELS 3 Zrotation Xrotation Yrotation
            JOINT rHand
            {
              OFFSET -22.5879 0.773209 7.07136
              CHANNELS 3 Zrotation Xrotation Yrotation
              JOINT rThumb1
              {
                OFFSET -1.2192 -0.487915 3.41376
                CHANNELS 3 Zrotation Xrotation Yrotation
                JOINT rThumb2
                {
                  OFFSET -3.37035 -0.52449 3.41376
                  CHANNELS 3 Zrotation Xrotation Yrotation
                  End Site
                  {
                    OFFSET -1.78271 -1.18214 1.43049
                  }
                }
              }
              JOINT rIndex1
              {
                OFFSET -7.75947 0.938293 5.60832
                CHANNELS 3 Zrotation Xrotation Yrotation
                JOINT rIndex2
                {
                  OFFSET -2.54057 -0.884171 1.56538
                  CHANNELS 3 Zrotation Xrotation Yrotation
                  End Site
                  {
                    OFFSET -1.62519 -0.234802 1.16502
                  }
                }
              }
              JOINT rMid1
              {
                OFFSET -8.24714 1.18213 3.41376
                CHANNELS 3 Zrotation Xrotation Yrotation
                JOINT rMid2
                {
                  OFFSET -3.10165 -0.590103 1.0647
                  CHANNELS 3 Zrotation Xrotation Yrotation
                  End Site
                  {
                    OFFSET -2.48547 -0.328903 0.83742
                  }
                }
              }
              JOINT rRing1
              {
                OFFSET -8.82822 0.546677 1.51678
                CHANNELS 3 Zrotation Xrotation Yrotation
                JOINT rRing2
                {
                  OFFSET -2.60934 -0.819778 -0.0198488
                  CHANNELS 3 Zrotation Xrotation Yrotation
                  End Site
                  {
                    OFFSET -2.33842 -0.294052 0.168128
                  }
                }
              }
              JOINT rPinky1
              {
                OFFSET -8.27202 -0.0477905 -0.4584
                CHANNELS 3 Zrotation Xrotation Yrotation
                JOINT rPinky2
                {
                  OFFSET -1.82734 -0.647385 -0.700984
                  CHANNELS 3 Zrotation Xrotation Yrotation
                  End Site
                  {
                    OFFSET -1.69225 -0.51767 -0.607171
                  }
                }
              }
            }
          }
        }
      }
      JOINT lCollar
      {
        OFFSET 2.68224 19.2634 -4.8768
        CHANNELS 3 Zrotation Xrotation Yrotation
        JOINT lShldr
        {
          OFFSET 8.77824 -1.95073 1.46304
          CHANNELS 3 Zrotation Xrotation Yrotation
          JOINT lForeArm
          {
            OFFSET 28.1742 -1.7115 0.48768
            CHANNELS 3 Zrotation Xrotation Yrotation
            JOINT lHand
            {
              OFFSET 22.5879 0.773209 7.07136
              CHANNELS 3 Zrotation Xrotation Yrotation
              JOINT lThumb1
              {
                OFFSET 1.2192 -0.487915 3.41376
                CHANNELS 3 Zrotation Xrotation Yrotation
                JOINT lThumb2
                {
                  OFFSET 3.37035 -0.52449 3.41376
                  CHANNELS 3 Zrotation Xrotation Yrotation
                  End Site
                  {
                    OFFSET 1.78271 -1.18214 1.43049
                  }
                }
              }
              JOINT lIndex1
              {
                OFFSET 7.75947 0.938293 5.60832
                CHANNELS 3 Zrotation Xrotation Yrotation
                JOINT lIndex2
                {
                  OFFSET 2.54057 -0.884171 1.56538
                  CHANNELS 3 Zrotation Xrotation Yrotation
                  End Site
                  {
                    OFFSET 1.62519 -0.234802 1.16502
                  }
                }
              }
              JOINT lMid1
              {
                OFFSET 8.24714 1.18213 3.41376
                CHANNELS 3 Zrotation Xrotation Yrotation
                JOINT lMid2
                {
                  OFFSET 3.10165 -0.590103 1.0647
                  CHANNELS 3 Zrotation Xrotation Yrotation
                  End Site
                  {
                    OFFSET 2.48547 -0.328903 0.83742
                  }
                }
              }
              JOINT lRing1
              {
                OFFSET 8.82822 0.546677 1.51678
                CHANNELS 3 Zrotation Xrotation Yrotation
                JOINT lRing2
                {
                  OFFSET 2.60934 -0.819778 -0.0198488
                  CHANNELS 3 Zrotation Xrotation Yrotation
                  End Site
                  {
                    OFFSET 2.33842 -0.294052 0.168128
                  }
                }
              }
              JOINT lPinky1
              {
                OFFSET 8.27202 -0.0477905 -0.4584
                CHANNELS 3 Zrotation Xrotation Yrotation
                JOINT lPinky2
                {
                  OFFSET 1.82734 -0.647385 -0.700984
                  CHANNELS 3 Zrotation Xrotation Yrotation
                  End Site
                  {
                    OFFSET 1.69225 -0.51767 -0.607171
                  }
                }
              }
            }
          }
        }
      }
    }
  }
  JOINT rButtock
  {
    OFFSET -8.77824 4.35084 1.2192
    CHANNELS 3 Zrotation Xrotation Yrotation
    JOINT rThigh
    {
      OFFSET 0 -1.70687 -2.19456
      CHANNELS 3 Zrotation Xrotation Yrotation
      JOINT rShin
      {
        OFFSET 0 -36.8199 0.73152
        CHANNELS 3 Zrotation Xrotation Yrotation
        JOINT rFoot
        {
          OFFSET 0.73152 -45.1104 -5.12064
          CHANNELS 3 Zrotation Xrotation Yrotation
          End Site
          {
            OFFSET -1.1221 -3.69964 12.103
          }
        }
      }
    }
  }
  JOINT lButtock
  {
    OFFSET 8.77824 4.35084 1.2192
    CHANNELS 3 Zrotation Xrotation Yrotation
    JOINT lThigh
    {
      OFFSET 0 -1.70687 -2.19456
      CHANNELS 3 Zrotation Xrotation Yrotation
      JOINT lShin
      {
        OFFSET 0 -36.8199 0.73152
        CHANNELS 3 Zrotation Xrotation Yrotation
        JOINT lFoot
        {
          OFFSET -0.73152 -45.1104 -5.12064
          CHANNELS 3 Zrotation Xrotation Yrotation
          End Site
          {
            OFFSET 1.1221 -3.69964 12.103
          }
        }
      }
    }
  }
}
MOTION
Frames:	6
Frame Time:	0.03333
-3.6859999999999995 57.796899999999994 2.6226 7.064052 -31.667287 -0.48658 -21.565792 12.49862 3.97105 1.329292 -9.284891 0.021767 10.841505 26.199716 104.976844 -28.820446 13.674408 -56.926448 -0.003548 -0.0 0.000132 0.002114 0.0 0.000911 -143.62052 38.233419 148.080649 -0.56117 -1.386134 80.85521 -18.740321 74.524209 -114.281367 -147.004723 25.947075 131.47643 -93.744054 37.963284 53.548118 92.024699 -50.844052 40.493533 -166.82301 -43.973915 122.059782 -165.671896 -29.123933 118.279998 -0.219915 0.638266 0.124266 80.538129 -78.004484 52.071331 -0.019368 -1.725293 -0.541622 7.586135 26.549527 4.019856 5.823978 17.412317 5.227544 35.586214 80.509216 0.451655 59.833455 -86.721277 81.633882 -13.595328 -4.688006 50.615228 14.096022 33.688157 -100.100872 17.255421 -62.40931 19.609869 68.482598 37.953517 -35.659669 135.684277 -27.409086 -85.488167 151.354063 -17.158658 -121.13193 155.41189 -3.175745 -118.961518 -0.54061 -1.590127 0.293794 170.986122 -28.290292 -144.248969 -0.000826 0.063789 -0.019719 151.451656 32.242144 -166.533572 113.836921 -39.284553 111.847944 146.354643 10.991992 142.08945 -179.87766 75.749513 -0.094293 148.273723 -14.629823 180.0 116.792526 -80.374381 -127.157158 9.302707 2.840621 92.020488 -179.990815 75.749538 -0.006285 -84.842886 70.11742 84.108129 16.141546 -38.353477 78.607196 108.416081 -12.670747 166.204631
-3.6817 57.6515 2.6962 7.145956 -31.692907 -0.273345 -21.361019 7.681913 -180.0 -1.915657 4.409394 -176.154377 9.283804 30.545267 132.061794 -24.819036 26.581497 -81.510699 -0.001353 -0.0 0.000846 -0.000744 0.0 -0.000866 -85.537236 68.182484 88.688972 -125.568699 -31.428741 125.179666 -115.293409 50.813433 -129.062472 -23.609501 -78.930663 -33.55271 -166.631583 -4.304844 89.771102 178.336544 -18.104818 91.986222 -173.60324 -52.692418 119.891209 -172.828168 -41.026534 114.945095 -125.644894 49.840351 115.274409 174.92504 -56.688018 137.934376 -145.064349 -3.308729 -178.085069 -148.377809 -41.37942 -171.174519 -1.177243 -2.985212 -1.093736 -22.705121 -40.189494 -23.494229 0.164796 0.979199 -0.219148 106.318711 -10.978314 -165.30324 55.033084 -24.069879 164.329772 162.188132 -12.822204 -151.909529 7.759703 7.438591 -1.68212 -7.193924 -7.07519 0.381328 100.824583 37.733797 -85.161798 -8.217804 -3.530361 6.38763 169.089913 -33.247476 -145.374159 175.591712 -39.349238 -142.878354 0.014712 -1.323262 0.41516 154.127369 12.763415 -170.107992 -0.211585 0.551906 -0.193882 -12.04949 32.3029 -7.197001 0.00069 -0.000516 -0.000887 -92.894359 -60.279598 178.194628 -88.982385 -8.795253 99.176972 178.691779 -32.040866 -8.256939 -179.998169 75.750158 -0.0 -81.188354 71.039346 -11.063709 35.361247 0.046972 -20.602464 -146.782921 0.584484 11.178619
-3.6834 57.564499999999995 2.7337 7.121717 -31.737046 -0.294284 -18.806739 10.547272 -77.325174 6.963844 -2.031656 80.990736 8.256435 18.931985 61.643008 -22.924549 -7.862152 -18.020315 -0.003523 0.0 -0.00092 -0.003523 0.0 -0.00092 -155.417405 -2.951616 161.717965 99.097515 -22.144265 128.950079 151.877966 38.687257 59.699987 -117.43008 47.623364 100.519382 114.538995 -50.245761 55.721836 -165.471789 -21.461317 121.452861 -27.608701 30.766527 20.254164 -67.45074 49.182972 48.827698 -4.104333 11.116637 2.536976 -178.292208 -46.188354 142.116167 -145.122042 1.974958 -179.7478 -79.751751 87.674644 92.914184 -155.358144 49.793471 -149.599442 -26.097781 -40.288172 -26.688092 -0.070927 -0.427797 0.094951 108.665605 -22.902932 -166.652961 -59.104664 -67.4202 71.315252 123.255587 43.805226 -108.13343 175.667377 -13.30652 -89.772129 18.204549 -43.404208 -0.973155 33.798985 34.484445 -25.495451 166.907901 -15.683472 -111.334684 160.67299 -6.667912 -143.245048 83.277383 63.96504 -75.245831 145.119709 0.22683 179.199097 152.406621 -24.954071 175.353564 154.164076 45.105699 148.908667 24.56114 -39.134328 25.315049 0.001869 2.4e-05 0.000935 -92.880802 -57.810984 -3.361365 101.388527 13.46307 123.404887 -109.860742 28.411869 -172.634699 0.001869 2.4e-05 0.000935 20.654677 17.350438 -0.0 2.2694 31.748303 34.663224 -67.220261 -21.811954 -9.031892
-3.6803000000000003 57.4926 2.795 7.054084 -31.741732 -0.318184 -18.527449 9.945007 -97.286579 6.407559 0.33784 100.785764 -11.226657 25.175655 -77.217924 32.905594 9.049268 123.058343 -0.001007 0.0 -0.003365 -0.001007 0.0 -0.003365 -0.272772 1.606892 0.360483 -99.862016 -5.843468 -143.349864 -158.096838 -6.692144 -76.188711 -14.523763 -63.427749 -18.792831 -166.63122 -4.305017 89.771002 164.814871 -29.45279 95.227785 169.568658 -65.84259 109.956998 12.473967 6.171004 -7.159641 179.736569 -58.401175 141.962438 -42.530399 58.317406 36.456127 -145.119076 0.186129 -179.185252 -6.956079 -61.108876 -27.918372 -139.224774 -4.397129 -136.39094 -141.314585 -3.94457 -137.309154 -2.456426 -18.187027 3.663735 104.725533 -15.358566 177.041608 -70.051125 -45.656781 70.430177 93.623697 50.150417 -77.424239 -88.928573 -50.830873 -37.599528 137.615659 17.926476 -100.505724 166.821956 -43.973785 -122.061495 -145.77927 -67.205242 -85.09595 158.521416 -0.192477 -142.144268 11.617184 33.311088 -9.516294 145.118648 0.185103 179.187269 -10.191276 -0.27845 9.029753 150.580631 31.033369 146.363671 94.399588 -50.154673 93.147228 -179.997323 75.750973 -0.002762 147.733682 -14.802312 -180.0 126.027163 -79.356945 -131.460021 127.921921 -50.085586 -128.935335 0.000333 0.000359 0.000666 20.699252 17.386031 -0.0 -11.291948 37.670598 -104.309241 78.787762 -9.202287 151.284328
-3.6996 57.439099999999996 2.8293 7.050481 -31.624472 -0.539108 -18.246748 10.385947 -98.762295 6.395036 0.563887 102.196046 8.553244 19.081937 64.09058 -23.860754 -6.828147 -20.416996 0.001371 0.0 0.002115 0.000817 0.0 0.003811 4.239564 -44.742732 -8.64783 -75.405894 -24.193594 -88.478814 1.06107 -4.544925 -135.710479 -145.638382 27.885776 129.919203 -6.400913 6.175685 1.319948 -121.988036 -16.495127 108.178879 -152.105668 -18.556296 121.368121 0.909188 19.599385 -5.427527 0.04692 -0.138805 -0.025571 -163.576822 -5.704018 143.448622 -145.061149 -3.310069 -178.087824 -144.781825 -50.79971 -167.356199 -1.168203 -2.963059 -1.082661 -147.791411 13.373336 -144.094313 142.973603 39.43162 -147.390074 -104.060038 -39.605667 -134.129455 -83.17424 78.811597 -156.812487 129.274816 40.629797 -114.427101 15.473502 14.199513 -4.248303 135.257266 -37.142536 -109.4488 166.820083 -43.974113 -122.062255 164.194641 -26.432196 -118.614483 164.635591 -19.283951 -144.733977 -86.507911 -77.975136 -57.825107 75.673631 -72.114795 92.829363 -14.093617 27.421665 0.993653 -12.632893 42.934137 -10.530769 85.725768 -53.643905 84.487305 -179.989928 75.748707 -0.008287 148.615399 -13.58181 -94.669154 -90.205297 -3.534515 128.293677 -86.536508 -0.302071 20.045462 0.000717 -0.000282 -0.000922 20.851436 17.417353 -0.0 -7.447485 31.554153 -40.731004 174.653479 -23.802654 -94.770746
-3.6607000000000003 57.3962 2.8857 6.849113 -31.470469 -0.691341 -18.053558 10.758908 -107.146979 5.985001 1.553545 110.449945 10.73062 24.823447 99.223141 -29.432907 10.834857 -51.840486 0.003687 -0.0 -0.003116 0.003687 -0.0 -0.003116 -0.049081 0.292405 0.06486 -90.614499 -18.375978 -139.328969 -178.024342 -2.872662 -78.889424 -14.980913 -42.164713 -10.864986 -172.670948 -10.349593 89.931737 -29.384426 -32.228408 3.121213 -149.660146 -14.02951 120.541726 -47.710705 55.113536 32.753535 23.90595 -61.33345 1.400337 2.216933 2.414321 0.424919 -145.120129 0.309611 -179.226717 -16.096744 -68.331109 -37.218828 31.499518 83.082986 6.662184 -148.866717 12.92128 -142.97895 -3.284826 -26.942021 5.275525 106.25774 -6.841591 170.442312 -20.099327 -43.95534 110.805689 130.356757 40.021345 -115.496226 5.368831 5.203126 -1.061369 115.909999 -7.436069 -104.307615 162.917442 -37.929394 -122.630886 61.044461 57.231763 -46.99152 173.037554 -44.087624 -144.932226 34.848696 54.929019 -29.402428 0.00041 0.063644 -0.020475 156.118383 -13.744498 -173.484002 145.173018 12.067683 141.822951 162.407919 55.864304 146.673853 -0.001301 -0.000683 -0.001301 -92.56086 -59.27143 176.495539 -99.751953 -16.396182 -24.566482 8.60778 10.582376 139.754476 0.0 0.000997 -0.000555 21.082973 17.397672 -6.159618 -0.482035 33.879701 53.469525 54.363185 -27.386009 -6.359878
